<mxfile host="65bd71144e">
    <diagram id="wJjFDpm9GOEmU09CiQZd" name="Nhân viên">
        <mxGraphModel dx="1108" dy="575" grid="1" gridSize="10" guides="1" tooltips="1" connect="1" arrows="1" fold="1" page="1" pageScale="1" pageWidth="850" pageHeight="1100" math="0" shadow="0">
            <root>
                <mxCell id="WjB0gjLMXh-v31FT7Nd1-0"/>
                <mxCell id="WjB0gjLMXh-v31FT7Nd1-1" parent="WjB0gjLMXh-v31FT7Nd1-0"/>
                <mxCell id="5DAAZ6V2rE8kJXYzP1lH-0" value="&lt;font style=&quot;font-size: 30px&quot;&gt;Danh sách nhân viên&lt;/font&gt;" style="rounded=0;whiteSpace=wrap;html=1;" parent="WjB0gjLMXh-v31FT7Nd1-1" vertex="1">
                    <mxGeometry width="240" height="120" as="geometry"/>
                </mxCell>
                <mxCell id="5DAAZ6V2rE8kJXYzP1lH-15" value="Nhân viên B" style="rounded=0;whiteSpace=wrap;html=1;" parent="WjB0gjLMXh-v31FT7Nd1-1" vertex="1">
                    <mxGeometry x="110" y="240" width="110" height="100" as="geometry"/>
                </mxCell>
                <mxCell id="5DAAZ6V2rE8kJXYzP1lH-16" value="Nhân viên A" style="rounded=0;whiteSpace=wrap;html=1;" parent="WjB0gjLMXh-v31FT7Nd1-1" vertex="1">
                    <mxGeometry y="240" width="100" height="100" as="geometry"/>
                </mxCell>
                <mxCell id="5DAAZ6V2rE8kJXYzP1lH-17" value="Nhân viên C" style="rounded=0;whiteSpace=wrap;html=1;" parent="WjB0gjLMXh-v31FT7Nd1-1" vertex="1">
                    <mxGeometry x="230" y="240" width="120" height="100" as="geometry"/>
                </mxCell>
                <mxCell id="5DAAZ6V2rE8kJXYzP1lH-18" value="Nhân viên D" style="rounded=0;whiteSpace=wrap;html=1;" parent="WjB0gjLMXh-v31FT7Nd1-1" vertex="1">
                    <mxGeometry x="355" y="240" width="120" height="100" as="geometry"/>
                </mxCell>
                <mxCell id="5DAAZ6V2rE8kJXYzP1lH-19" value="Nhân viên E" style="rounded=0;whiteSpace=wrap;html=1;" parent="WjB0gjLMXh-v31FT7Nd1-1" vertex="1">
                    <mxGeometry x="480" y="240" width="120" height="100" as="geometry"/>
                </mxCell>
                <mxCell id="5DAAZ6V2rE8kJXYzP1lH-20" value="Nhân viên G" style="rounded=0;whiteSpace=wrap;html=1;" parent="WjB0gjLMXh-v31FT7Nd1-1" vertex="1">
                    <mxGeometry x="610" y="240" width="110" height="100" as="geometry"/>
                </mxCell>
                <mxCell id="5DAAZ6V2rE8kJXYzP1lH-21" value="Nhân viên H" style="rounded=0;whiteSpace=wrap;html=1;" parent="WjB0gjLMXh-v31FT7Nd1-1" vertex="1">
                    <mxGeometry x="730" y="240" width="110" height="100" as="geometry"/>
                </mxCell>
                <mxCell id="aIFegbonVFhcFh76QNe9-0" value="&lt;font style=&quot;font-size: 25px&quot;&gt;Phòng ban&lt;/font&gt;" style="rounded=0;whiteSpace=wrap;html=1;" parent="WjB0gjLMXh-v31FT7Nd1-1" vertex="1">
                    <mxGeometry x="320" width="200" height="120" as="geometry"/>
                </mxCell>
                <mxCell id="uXP6oZ5_RdLUxFhCjeWf-0" value="&lt;font style=&quot;font-size: 24px&quot;&gt;Lương&lt;/font&gt;" style="rounded=0;whiteSpace=wrap;html=1;" parent="WjB0gjLMXh-v31FT7Nd1-1" vertex="1">
                    <mxGeometry x="640" width="210" height="120" as="geometry"/>
                </mxCell>
                <mxCell id="uXP6oZ5_RdLUxFhCjeWf-1" value="" style="endArrow=none;html=1;fontSize=24;" parent="WjB0gjLMXh-v31FT7Nd1-1" edge="1">
                    <mxGeometry width="50" height="50" relative="1" as="geometry">
                        <mxPoint x="120" y="160" as="sourcePoint"/>
                        <mxPoint x="120" y="120" as="targetPoint"/>
                    </mxGeometry>
                </mxCell>
                <mxCell id="uXP6oZ5_RdLUxFhCjeWf-2" value="" style="endArrow=none;html=1;fontSize=24;" parent="WjB0gjLMXh-v31FT7Nd1-1" edge="1">
                    <mxGeometry width="50" height="50" relative="1" as="geometry">
                        <mxPoint x="40" y="160" as="sourcePoint"/>
                        <mxPoint x="790" y="160" as="targetPoint"/>
                    </mxGeometry>
                </mxCell>
                <mxCell id="uXP6oZ5_RdLUxFhCjeWf-3" value="" style="endArrow=classic;html=1;fontSize=24;entryX=0.412;entryY=-0.006;entryDx=0;entryDy=0;entryPerimeter=0;" parent="WjB0gjLMXh-v31FT7Nd1-1" target="5DAAZ6V2rE8kJXYzP1lH-16" edge="1">
                    <mxGeometry width="50" height="50" relative="1" as="geometry">
                        <mxPoint x="40" y="160" as="sourcePoint"/>
                        <mxPoint x="90" y="110" as="targetPoint"/>
                    </mxGeometry>
                </mxCell>
                <mxCell id="uXP6oZ5_RdLUxFhCjeWf-4" value="" style="endArrow=classic;html=1;fontSize=24;entryX=0.5;entryY=0;entryDx=0;entryDy=0;" parent="WjB0gjLMXh-v31FT7Nd1-1" target="5DAAZ6V2rE8kJXYzP1lH-15" edge="1">
                    <mxGeometry width="50" height="50" relative="1" as="geometry">
                        <mxPoint x="165" y="160" as="sourcePoint"/>
                        <mxPoint x="220" y="110" as="targetPoint"/>
                    </mxGeometry>
                </mxCell>
                <mxCell id="uXP6oZ5_RdLUxFhCjeWf-5" value="" style="endArrow=classic;html=1;fontSize=24;entryX=0.417;entryY=0;entryDx=0;entryDy=0;entryPerimeter=0;" parent="WjB0gjLMXh-v31FT7Nd1-1" target="5DAAZ6V2rE8kJXYzP1lH-17" edge="1">
                    <mxGeometry width="50" height="50" relative="1" as="geometry">
                        <mxPoint x="280" y="160" as="sourcePoint"/>
                        <mxPoint x="330" y="110" as="targetPoint"/>
                    </mxGeometry>
                </mxCell>
                <mxCell id="uXP6oZ5_RdLUxFhCjeWf-6" value="" style="endArrow=classic;html=1;fontSize=24;entryX=0.585;entryY=-0.022;entryDx=0;entryDy=0;entryPerimeter=0;" parent="WjB0gjLMXh-v31FT7Nd1-1" target="5DAAZ6V2rE8kJXYzP1lH-18" edge="1">
                    <mxGeometry width="50" height="50" relative="1" as="geometry">
                        <mxPoint x="425" y="160" as="sourcePoint"/>
                        <mxPoint x="424" y="200" as="targetPoint"/>
                    </mxGeometry>
                </mxCell>
                <mxCell id="uXP6oZ5_RdLUxFhCjeWf-7" value="" style="endArrow=classic;html=1;fontSize=24;entryX=0.583;entryY=0;entryDx=0;entryDy=0;entryPerimeter=0;" parent="WjB0gjLMXh-v31FT7Nd1-1" target="5DAAZ6V2rE8kJXYzP1lH-19" edge="1">
                    <mxGeometry width="50" height="50" relative="1" as="geometry">
                        <mxPoint x="550" y="160" as="sourcePoint"/>
                        <mxPoint x="600" y="115" as="targetPoint"/>
                    </mxGeometry>
                </mxCell>
                <mxCell id="uXP6oZ5_RdLUxFhCjeWf-8" value="" style="endArrow=classic;html=1;fontSize=24;entryX=0.444;entryY=0.002;entryDx=0;entryDy=0;entryPerimeter=0;" parent="WjB0gjLMXh-v31FT7Nd1-1" target="5DAAZ6V2rE8kJXYzP1lH-20" edge="1">
                    <mxGeometry width="50" height="50" relative="1" as="geometry">
                        <mxPoint x="660" y="160" as="sourcePoint"/>
                        <mxPoint x="710" y="110" as="targetPoint"/>
                    </mxGeometry>
                </mxCell>
                <mxCell id="uXP6oZ5_RdLUxFhCjeWf-9" value="" style="endArrow=classic;html=1;fontSize=24;" parent="WjB0gjLMXh-v31FT7Nd1-1" edge="1">
                    <mxGeometry width="50" height="50" relative="1" as="geometry">
                        <mxPoint x="790" y="160" as="sourcePoint"/>
                        <mxPoint x="790" y="240" as="targetPoint"/>
                    </mxGeometry>
                </mxCell>
            </root>
        </mxGraphModel>
    </diagram>
    <diagram id="vCJchNpZpQthcplEAxcU" name="Phòng ban">
        <mxGraphModel dx="1108" dy="575" grid="1" gridSize="10" guides="1" tooltips="1" connect="1" arrows="1" fold="1" page="1" pageScale="1" pageWidth="850" pageHeight="1100" math="0" shadow="0">
            <root>
                <mxCell id="J8trbaSnto4hoMV7mOAd-0"/>
                <mxCell id="J8trbaSnto4hoMV7mOAd-1" parent="J8trbaSnto4hoMV7mOAd-0"/>
                <mxCell id="at7kJm3FYHuYRNKw7YFa-0" value="&lt;font style=&quot;font-size: 24px&quot;&gt;Danh sách nhân viên&lt;/font&gt;" style="rounded=0;whiteSpace=wrap;html=1;" parent="J8trbaSnto4hoMV7mOAd-1" vertex="1">
                    <mxGeometry width="240" height="120" as="geometry"/>
                </mxCell>
                <mxCell id="I-MDj9eCYf8Ro4qC1ve--0" value="&lt;font style=&quot;font-size: 24px&quot;&gt;Phòng ban&lt;/font&gt;" style="rounded=0;whiteSpace=wrap;html=1;" parent="J8trbaSnto4hoMV7mOAd-1" vertex="1">
                    <mxGeometry x="320" width="240" height="120" as="geometry"/>
                </mxCell>
                <mxCell id="Bt3tzjquLWpUXxb1e3J9-0" value="&lt;font style=&quot;font-size: 24px&quot;&gt;Lương&lt;/font&gt;" style="rounded=0;whiteSpace=wrap;html=1;" parent="J8trbaSnto4hoMV7mOAd-1" vertex="1">
                    <mxGeometry x="640" width="210" height="120" as="geometry"/>
                </mxCell>
                <mxCell id="B7I0SGrNpNbWcyDWFVy5-1" value="" style="endArrow=none;html=1;fontSize=24;" parent="J8trbaSnto4hoMV7mOAd-1" edge="1">
                    <mxGeometry width="50" height="50" relative="1" as="geometry">
                        <mxPoint x="80" y="200" as="sourcePoint"/>
                        <mxPoint x="760" y="200" as="targetPoint"/>
                    </mxGeometry>
                </mxCell>
                <mxCell id="B7I0SGrNpNbWcyDWFVy5-5" value="&lt;span style=&quot;font-size: 24px&quot;&gt;&amp;nbsp;Phòng Sale&lt;/span&gt;&lt;br&gt;&lt;font size=&quot;3&quot;&gt;Số lượng:&lt;/font&gt;" style="rounded=0;whiteSpace=wrap;html=1;" parent="J8trbaSnto4hoMV7mOAd-1" vertex="1">
                    <mxGeometry y="320" width="140" height="80" as="geometry"/>
                </mxCell>
                <mxCell id="B7I0SGrNpNbWcyDWFVy5-6" value="&lt;font style=&quot;font-size: 24px&quot;&gt;Phòng HR&lt;br&gt;&lt;span style=&quot;color: rgba(0 , 0 , 0 , 0) ; font-family: monospace ; font-size: 0px&quot;&gt;%3CmxGraphModel%3E%3Croot%3E%3CmxCell%20id%3D%220%22%2F%3E%3CmxCell%20id%3D%221%22%20parent%3D%220%22%2F%3E%3CmxCell%20id%3D%222%22%20value%3D%22%26lt%3Bfont%20style%3D%26quot%3Bfont-size%3A%2036px%26quot%3B%26gt%3BH%C3%ACnh%20nh%C3%A2n%20vi%C3%AAn%26lt%3B%2Ffont%26gt%3B%22%20style%3D%22rounded%3D0%3BwhiteSpace%3Dwrap%3Bhtml%3D1%3B%22%20vertex%3D%221%22%20parent%3D%221%22%3E%3CmxGeometry%20x%3D%2240%22%20y%3D%2240%22%20width%3D%22320%22%20height%3D%22360%22%20as%3D%22geometry%22%2F%3E%3C%2FmxCell%3E%3C%2Froot%3E%3C%2FmxGraphModel%3E&lt;/span&gt;&lt;span style=&quot;font-size: medium&quot;&gt;Số lượng:&lt;/span&gt;&lt;br&gt;&lt;/font&gt;" style="rounded=0;whiteSpace=wrap;html=1;" parent="J8trbaSnto4hoMV7mOAd-1" vertex="1">
                    <mxGeometry x="170" y="320" width="160" height="80" as="geometry"/>
                </mxCell>
                <mxCell id="B7I0SGrNpNbWcyDWFVy5-7" value="&lt;font style=&quot;font-size: 24px&quot;&gt;Phòng Marketing&lt;br&gt;&lt;span style=&quot;font-size: medium&quot;&gt;Số lượng:&lt;/span&gt;&lt;br&gt;&lt;/font&gt;" style="rounded=0;whiteSpace=wrap;html=1;" parent="J8trbaSnto4hoMV7mOAd-1" vertex="1">
                    <mxGeometry x="355" y="320" width="140" height="80" as="geometry"/>
                </mxCell>
                <mxCell id="B7I0SGrNpNbWcyDWFVy5-8" value="&lt;font style=&quot;font-size: 24px&quot;&gt;Phòng IT&lt;br&gt;&lt;span style=&quot;font-size: medium&quot;&gt;Số lượng:&lt;/span&gt;&lt;span&gt;&#9;&lt;/span&gt;&lt;/font&gt;" style="rounded=0;whiteSpace=wrap;html=1;" parent="J8trbaSnto4hoMV7mOAd-1" vertex="1">
                    <mxGeometry x="530" y="320" width="140" height="80" as="geometry"/>
                </mxCell>
                <mxCell id="B7I0SGrNpNbWcyDWFVy5-9" value="&lt;font style=&quot;font-size: 24px&quot;&gt;Phòng Finance&lt;br&gt;&lt;span style=&quot;font-size: medium&quot;&gt;Số lượng:&lt;/span&gt;&lt;br&gt;&lt;/font&gt;" style="rounded=0;whiteSpace=wrap;html=1;" parent="J8trbaSnto4hoMV7mOAd-1" vertex="1">
                    <mxGeometry x="700" y="320" width="140" height="80" as="geometry"/>
                </mxCell>
                <mxCell id="B7I0SGrNpNbWcyDWFVy5-11" value="" style="endArrow=classic;html=1;fontSize=24;entryX=0.58;entryY=-0.037;entryDx=0;entryDy=0;entryPerimeter=0;" parent="J8trbaSnto4hoMV7mOAd-1" target="B7I0SGrNpNbWcyDWFVy5-5" edge="1">
                    <mxGeometry width="50" height="50" relative="1" as="geometry">
                        <mxPoint x="81" y="200" as="sourcePoint"/>
                        <mxPoint x="80" y="290" as="targetPoint"/>
                        <Array as="points"/>
                    </mxGeometry>
                </mxCell>
                <mxCell id="B7I0SGrNpNbWcyDWFVy5-12" value="" style="endArrow=classic;html=1;fontSize=24;entryX=0.5;entryY=0;entryDx=0;entryDy=0;" parent="J8trbaSnto4hoMV7mOAd-1" target="B7I0SGrNpNbWcyDWFVy5-6" edge="1">
                    <mxGeometry width="50" height="50" relative="1" as="geometry">
                        <mxPoint x="250" y="200" as="sourcePoint"/>
                        <mxPoint x="249.70000000000005" y="297.03999999999996" as="targetPoint"/>
                        <Array as="points"/>
                    </mxGeometry>
                </mxCell>
                <mxCell id="B7I0SGrNpNbWcyDWFVy5-14" value="" style="endArrow=classic;html=1;fontSize=24;entryX=0.5;entryY=0;entryDx=0;entryDy=0;" parent="J8trbaSnto4hoMV7mOAd-1" target="B7I0SGrNpNbWcyDWFVy5-8" edge="1">
                    <mxGeometry width="50" height="50" relative="1" as="geometry">
                        <mxPoint x="600" y="200" as="sourcePoint"/>
                        <mxPoint x="599.7" y="297.03999999999996" as="targetPoint"/>
                        <Array as="points"/>
                    </mxGeometry>
                </mxCell>
                <mxCell id="B7I0SGrNpNbWcyDWFVy5-15" value="" style="endArrow=classic;html=1;fontSize=24;entryX=0.437;entryY=-0.037;entryDx=0;entryDy=0;entryPerimeter=0;" parent="J8trbaSnto4hoMV7mOAd-1" target="B7I0SGrNpNbWcyDWFVy5-9" edge="1">
                    <mxGeometry width="50" height="50" relative="1" as="geometry">
                        <mxPoint x="761" y="200" as="sourcePoint"/>
                        <mxPoint x="760" y="287.04" as="targetPoint"/>
                        <Array as="points"/>
                    </mxGeometry>
                </mxCell>
                <mxCell id="9QuH4kLC0RSsIjrtg4cH-0" value="" style="endArrow=classic;html=1;exitX=0.5;exitY=1;exitDx=0;exitDy=0;entryX=0.61;entryY=0.022;entryDx=0;entryDy=0;entryPerimeter=0;" parent="J8trbaSnto4hoMV7mOAd-1" source="I-MDj9eCYf8Ro4qC1ve--0" target="B7I0SGrNpNbWcyDWFVy5-7" edge="1">
                    <mxGeometry width="50" height="50" relative="1" as="geometry">
                        <mxPoint x="400" y="300" as="sourcePoint"/>
                        <mxPoint x="450" y="250" as="targetPoint"/>
                    </mxGeometry>
                </mxCell>
            </root>
        </mxGraphModel>
    </diagram>
    <diagram id="Rm2KINWGvWYN-aqcMVKR" name="Lương">
        <mxGraphModel dx="1108" dy="575" grid="1" gridSize="10" guides="1" tooltips="1" connect="1" arrows="1" fold="1" page="1" pageScale="1" pageWidth="850" pageHeight="1100" math="0" shadow="0">
            <root>
                <mxCell id="vfvMhhXysByKfhHB_uyl-0"/>
                <mxCell id="vfvMhhXysByKfhHB_uyl-1" parent="vfvMhhXysByKfhHB_uyl-0"/>
                <mxCell id="NQn6TP1kowyeCCd0Og0V-0" value="&lt;font style=&quot;font-size: 24px&quot;&gt;Danh sách nhân viên&lt;/font&gt;" style="rounded=0;whiteSpace=wrap;html=1;" parent="vfvMhhXysByKfhHB_uyl-1" vertex="1">
                    <mxGeometry width="240" height="120" as="geometry"/>
                </mxCell>
                <mxCell id="ammNITMR2rkD-MxOlXFv-0" value="&lt;font style=&quot;font-size: 24px&quot;&gt;Phòng ban&lt;/font&gt;" style="rounded=0;whiteSpace=wrap;html=1;" parent="vfvMhhXysByKfhHB_uyl-1" vertex="1">
                    <mxGeometry x="320" width="240" height="120" as="geometry"/>
                </mxCell>
                <mxCell id="EohEMcTd2u5Mb3m2-UVW-0" value="&lt;font style=&quot;font-size: 24px&quot;&gt;Lương&lt;/font&gt;" style="rounded=0;whiteSpace=wrap;html=1;" parent="vfvMhhXysByKfhHB_uyl-1" vertex="1">
                    <mxGeometry x="640" width="210" height="120" as="geometry"/>
                </mxCell>
                <mxCell id="oS8txzhTp4winMH8t8Ai-0" value="" style="endArrow=classic;html=1;exitX=0.5;exitY=1;exitDx=0;exitDy=0;entryX=0.61;entryY=0.022;entryDx=0;entryDy=0;entryPerimeter=0;" parent="vfvMhhXysByKfhHB_uyl-1" edge="1">
                    <mxGeometry width="50" height="50" relative="1" as="geometry">
                        <mxPoint x="760" y="120" as="sourcePoint"/>
                        <mxPoint x="760.4000000000001" y="321.76" as="targetPoint"/>
                    </mxGeometry>
                </mxCell>
                <mxCell id="8kFADUUZfQ_ea_lLD151-0" value="" style="endArrow=none;html=1;fontSize=24;" parent="vfvMhhXysByKfhHB_uyl-1" edge="1">
                    <mxGeometry width="50" height="50" relative="1" as="geometry">
                        <mxPoint x="80" y="200" as="sourcePoint"/>
                        <mxPoint x="760" y="200" as="targetPoint"/>
                    </mxGeometry>
                </mxCell>
                <mxCell id="RfaJv6Aba6bHbtcqF6---0" value="" style="endArrow=classic;html=1;fontSize=24;entryX=0.5;entryY=0;entryDx=0;entryDy=0;" parent="vfvMhhXysByKfhHB_uyl-1" edge="1">
                    <mxGeometry width="50" height="50" relative="1" as="geometry">
                        <mxPoint x="80" y="200" as="sourcePoint"/>
                        <mxPoint x="80" y="320" as="targetPoint"/>
                        <Array as="points"/>
                    </mxGeometry>
                </mxCell>
                <mxCell id="RfaJv6Aba6bHbtcqF6---1" value="" style="endArrow=classic;html=1;fontSize=24;entryX=0.5;entryY=0;entryDx=0;entryDy=0;" parent="vfvMhhXysByKfhHB_uyl-1" edge="1">
                    <mxGeometry width="50" height="50" relative="1" as="geometry">
                        <mxPoint x="250" y="200" as="sourcePoint"/>
                        <mxPoint x="250" y="320" as="targetPoint"/>
                        <Array as="points"/>
                    </mxGeometry>
                </mxCell>
                <mxCell id="RfaJv6Aba6bHbtcqF6---2" value="" style="endArrow=classic;html=1;fontSize=24;entryX=0.5;entryY=0;entryDx=0;entryDy=0;" parent="vfvMhhXysByKfhHB_uyl-1" edge="1">
                    <mxGeometry width="50" height="50" relative="1" as="geometry">
                        <mxPoint x="420" y="200" as="sourcePoint"/>
                        <mxPoint x="420" y="320" as="targetPoint"/>
                        <Array as="points"/>
                    </mxGeometry>
                </mxCell>
                <mxCell id="RfaJv6Aba6bHbtcqF6---3" value="" style="endArrow=classic;html=1;fontSize=24;entryX=0.5;entryY=0;entryDx=0;entryDy=0;" parent="vfvMhhXysByKfhHB_uyl-1" edge="1">
                    <mxGeometry width="50" height="50" relative="1" as="geometry">
                        <mxPoint x="590" y="200" as="sourcePoint"/>
                        <mxPoint x="590" y="320" as="targetPoint"/>
                        <Array as="points"/>
                    </mxGeometry>
                </mxCell>
                <mxCell id="8o0eVUqESuRp_L_GPlVe-1" value="Nhân viên E&lt;br&gt;&lt;div style=&quot;text-align: justify&quot;&gt;Mã số:&lt;/div&gt;&lt;div style=&quot;text-align: justify&quot;&gt;Hệ số lương:&lt;/div&gt;&lt;div style=&quot;text-align: justify&quot;&gt;Số giờ làm thêm:&lt;/div&gt;&lt;div style=&quot;text-align: justify&quot;&gt;Lương:&lt;/div&gt;" style="rounded=0;whiteSpace=wrap;html=1;" parent="vfvMhhXysByKfhHB_uyl-1" vertex="1">
                    <mxGeometry x="680" y="320" width="160" height="120" as="geometry"/>
                </mxCell>
                <mxCell id="8o0eVUqESuRp_L_GPlVe-2" value="Nhân viên D&lt;br&gt;&lt;div style=&quot;text-align: justify&quot;&gt;Mã số:&lt;/div&gt;&lt;div style=&quot;text-align: justify&quot;&gt;Hệ số lương:&lt;/div&gt;&lt;div style=&quot;text-align: justify&quot;&gt;Số giờ làm thêm:&lt;/div&gt;&lt;div style=&quot;text-align: justify&quot;&gt;Lương:&lt;/div&gt;" style="rounded=0;whiteSpace=wrap;html=1;" parent="vfvMhhXysByKfhHB_uyl-1" vertex="1">
                    <mxGeometry x="510" y="320" width="160" height="120" as="geometry"/>
                </mxCell>
                <mxCell id="8o0eVUqESuRp_L_GPlVe-3" value="Nhân viên C&lt;br&gt;&lt;div style=&quot;text-align: justify&quot;&gt;Mã số:&lt;/div&gt;&lt;div style=&quot;text-align: justify&quot;&gt;Hệ số lương:&lt;/div&gt;&lt;div style=&quot;text-align: justify&quot;&gt;Số giờ làm thêm:&lt;/div&gt;&lt;div style=&quot;text-align: justify&quot;&gt;Lương:&lt;/div&gt;" style="rounded=0;whiteSpace=wrap;html=1;" parent="vfvMhhXysByKfhHB_uyl-1" vertex="1">
                    <mxGeometry x="340" y="320" width="160" height="120" as="geometry"/>
                </mxCell>
                <mxCell id="8o0eVUqESuRp_L_GPlVe-5" value="Nhân viên B&lt;br&gt;&lt;div style=&quot;text-align: justify&quot;&gt;Mã số:&lt;/div&gt;&lt;div style=&quot;text-align: justify&quot;&gt;Hệ số lương:&lt;/div&gt;&lt;div style=&quot;text-align: justify&quot;&gt;Số giờ làm thêm:&lt;/div&gt;&lt;div style=&quot;text-align: justify&quot;&gt;Lương:&lt;/div&gt;" style="rounded=0;whiteSpace=wrap;html=1;" parent="vfvMhhXysByKfhHB_uyl-1" vertex="1">
                    <mxGeometry x="170" y="320" width="160" height="120" as="geometry"/>
                </mxCell>
                <mxCell id="8o0eVUqESuRp_L_GPlVe-6" value="&lt;div&gt;&lt;span&gt;Nhân viên A&lt;/span&gt;&lt;/div&gt;&lt;div style=&quot;text-align: left&quot;&gt;&lt;span&gt;Mã số:&lt;/span&gt;&lt;/div&gt;&lt;div style=&quot;text-align: left&quot;&gt;&lt;span&gt;Hệ số lương:&lt;/span&gt;&lt;/div&gt;&lt;div style=&quot;text-align: left&quot;&gt;&lt;span&gt;Số giờ làm thêm:&lt;/span&gt;&lt;/div&gt;&lt;div style=&quot;text-align: left&quot;&gt;&lt;span&gt;Lương:&lt;/span&gt;&lt;/div&gt;" style="rounded=0;whiteSpace=wrap;html=1;align=center;" parent="vfvMhhXysByKfhHB_uyl-1" vertex="1">
                    <mxGeometry y="320" width="160" height="120" as="geometry"/>
                </mxCell>
            </root>
        </mxGraphModel>
    </diagram>
    <diagram id="tnIS0rNTysS_Yc44N7yh" name="Chi tiết Nhân viên">
        <mxGraphModel dx="1108" dy="575" grid="1" gridSize="10" guides="1" tooltips="1" connect="1" arrows="1" fold="1" page="1" pageScale="1" pageWidth="850" pageHeight="1100" math="0" shadow="0">
            <root>
                <mxCell id="OEdoRkBSAyIptRfN_Eyi-0"/>
                <mxCell id="OEdoRkBSAyIptRfN_Eyi-1" parent="OEdoRkBSAyIptRfN_Eyi-0"/>
                <mxCell id="OEdoRkBSAyIptRfN_Eyi-4" style="edgeStyle=none;html=1;exitX=1;exitY=0.5;exitDx=0;exitDy=0;entryX=0;entryY=0.5;entryDx=0;entryDy=0;fontSize=18;" parent="OEdoRkBSAyIptRfN_Eyi-1" source="OEdoRkBSAyIptRfN_Eyi-2" target="OEdoRkBSAyIptRfN_Eyi-3" edge="1">
                    <mxGeometry relative="1" as="geometry"/>
                </mxCell>
                <mxCell id="OEdoRkBSAyIptRfN_Eyi-2" value="&lt;font style=&quot;font-size: 36px&quot;&gt;Hình nhân viên&lt;/font&gt;" style="rounded=0;whiteSpace=wrap;html=1;" parent="OEdoRkBSAyIptRfN_Eyi-1" vertex="1">
                    <mxGeometry x="40" y="200" width="320" height="360" as="geometry"/>
                </mxCell>
                <mxCell id="OEdoRkBSAyIptRfN_Eyi-3" value="&lt;div style=&quot;text-align: left&quot;&gt;&lt;span style=&quot;font-size: medium&quot;&gt;Họ và tên:&lt;/span&gt;&lt;/div&gt;&lt;font size=&quot;3&quot;&gt;&lt;div style=&quot;text-align: left&quot;&gt;&lt;span&gt;Ngày sinh:&lt;/span&gt;&lt;/div&gt;&lt;div style=&quot;text-align: left&quot;&gt;&lt;span&gt;Ngày vào công ty:&lt;/span&gt;&lt;/div&gt;&lt;div style=&quot;text-align: left&quot;&gt;&lt;span&gt;Phòng ban:&lt;/span&gt;&lt;/div&gt;&lt;div style=&quot;text-align: left&quot;&gt;&lt;span&gt;Số ngày nghỉ còn lại:&lt;/span&gt;&lt;/div&gt;&lt;div style=&quot;text-align: left&quot;&gt;&lt;span&gt;Số ngày đã làm thêm:&lt;/span&gt;&lt;/div&gt;&lt;/font&gt;" style="rounded=0;whiteSpace=wrap;html=1;" parent="OEdoRkBSAyIptRfN_Eyi-1" vertex="1">
                    <mxGeometry x="480" y="200" width="320" height="360" as="geometry"/>
                </mxCell>
                <mxCell id="FGGggeKZbG7J0GYr97U--0" value="&lt;font style=&quot;font-size: 30px&quot;&gt;Danh sách nhân viên&lt;/font&gt;" style="rounded=0;whiteSpace=wrap;html=1;" vertex="1" parent="OEdoRkBSAyIptRfN_Eyi-1">
                    <mxGeometry width="240" height="120" as="geometry"/>
                </mxCell>
                <mxCell id="Iew4FecRW-EWyxIwpiL--0" value="&lt;font style=&quot;font-size: 24px&quot;&gt;Phòng ban&lt;/font&gt;" style="rounded=0;whiteSpace=wrap;html=1;" vertex="1" parent="OEdoRkBSAyIptRfN_Eyi-1">
                    <mxGeometry x="320" width="240" height="120" as="geometry"/>
                </mxCell>
                <mxCell id="PZON4ADJuURsEGSP3wW6-0" value="&lt;font style=&quot;font-size: 24px&quot;&gt;Lương&lt;/font&gt;" style="rounded=0;whiteSpace=wrap;html=1;" vertex="1" parent="OEdoRkBSAyIptRfN_Eyi-1">
                    <mxGeometry x="640" width="210" height="120" as="geometry"/>
                </mxCell>
            </root>
        </mxGraphModel>
    </diagram>
</mxfile>